PathFileType	4	(X/Y/Z)	c:/Users/goper/Files/vsCode/490R/osim_files/A05/A05_Fast_05.trc
DataRate	CameraRate	NumFrames	NumMarkers	Units                	OrigDataRate	OrigDataStartFrame	OrigNumFrames
250.00	250.00	10	36	mm	250.0	1471	2352
                Frame#	Time	LPSIS			LASIS			LTH1			LTH2			LTH3			LTH4			LLFE			LMFE			LSH1			LSH2			LSH3			LSH4			LLMAL			LMMAL			LCAL			LMTP5			LTOE			LMTP1			RPSIS			RASIS			RTH1			RTH2			RTH3			RTH4			RLFE			RMFE			RSH1			RSH2			RSH3			RSH4			RLMAL			RMMAL			RCAL			RMTP1			RTOE			RMTP5		
		X1	Y1	Z1	X2	Y2	Z2	X3	Y3	Z3	X4	Y4	Z4	X5	Y5	Z5	X6	Y6	Z6	X7	Y7	Z7	X8	Y8	Z8	X9	Y9	Z9	X10	Y10	Z10	X11	Y11	Z11	X12	Y12	Z12	X13	Y13	Z13	X14	Y14	Z14	X15	Y15	Z15	X16	Y16	Z16	X17	Y17	Z17	X18	Y18	Z18	X19	Y19	Z19	X20	Y20	Z20	X21	Y21	Z21	X22	Y22	Z22	X23	Y23	Z23	X24	Y24	Z24	X25	Y25	Z25	X26	Y26	Z26	X27	Y27	Z27	X28	Y28	Z28	X29	Y29	Z29	X30	Y30	Z30	X31	Y31	Z31	X32	Y32	Z32	X33	Y33	Z33	X34	Y34	Z34	X35	Y35	Z35	X36	Y36	Z36

1471	5.88000	0.00000	0.00000	0.00000	-2372.00000	947.72516	452.81848	0.00000	0.00000	0.00000	-2299.40137	621.91644	495.80374	-2331.25610	680.93921	515.29504	-2346.18896	640.75964	510.13159	-2397.08643	469.63550	492.01541	-2403.83569	465.95822	390.24466	-2379.59448	368.34735	502.35373	-2386.79907	325.35681	505.27673	-2438.87012	370.51303	491.25192	-2437.88379	326.91214	497.12231	-2445.62769	111.80843	504.32404	-2446.14746	113.67646	414.47876	0.00000	0.00000	0.00000	-2579.46655	61.04179	533.60260	-2627.72241	87.58065	472.17261	-2588.82495	76.02828	424.20294	-2183.51318	1000.25311	268.12302	0.00000	0.00000	0.00000	-2244.54175	598.38690	97.00357	-2248.62891	556.80731	102.89809	-2302.26172	598.45374	116.80607	0.00000	0.00000	0.00000	-2222.98608	517.08472	116.83518	-2233.75073	488.42755	246.31641	-2051.83765	307.29395	115.23410	-2027.83289	264.71878	125.87490	-2102.07715	269.84744	115.89553	-2070.70996	235.16785	120.38466	-1976.92432	164.22874	140.85814	-2036.00830	160.04745	224.53668	-1908.51819	125.26438	218.33157	-2099.72363	54.19593	200.25728	-2124.11182	56.81802	147.11853	-2058.17920	49.63901	91.02771
1472	5.88400	0.00000	0.00000	0.00000	-2376.07349	947.89667	453.88562	0.00000	0.00000	0.00000	-2302.63525	622.26935	496.58246	-2334.62598	681.27460	516.25848	-2349.38623	640.97766	511.01074	-2399.68994	469.70981	492.74829	-2408.46362	467.11502	392.40436	-2381.56812	368.47327	502.83011	-2388.66089	326.11282	505.47748	-2440.87012	370.87924	492.02322	-2439.67090	326.73584	497.65408	-2446.22363	111.61114	504.54626	-2446.58423	113.51435	414.74670	0.00000	0.00000	0.00000	-2579.95337	60.44207	533.77802	-2628.65503	86.83721	472.64487	-2589.27100	75.38641	424.43823	-2187.77832	1000.45148	268.71619	0.00000	0.00000	0.00000	-2251.62988	598.79370	96.43540	-2255.37231	556.93964	102.26188	-2309.86646	598.92102	116.58844	0.00000	0.00000	0.00000	-2213.85107	521.89685	108.84434	-2240.88403	487.98648	245.53268	-2055.62036	307.58792	116.06365	-2033.38281	268.11905	123.82601	-2106.30884	271.20425	115.15125	-2074.60815	237.05383	119.79298	-1980.15259	167.17416	140.72496	-2039.64795	162.13190	223.96419	-1911.40356	129.25441	218.72691	-2100.30542	54.43897	199.99342	-2124.37915	56.77615	147.03894	-2058.68433	50.21482	91.11145
1473	5.88800	0.00000	0.00000	0.00000	-2380.07251	948.11639	455.06781	0.00000	0.00000	0.00000	-2305.69702	622.69110	497.28214	-2338.04346	681.57092	517.09460	-2352.56958	641.21844	511.81143	-2402.24487	469.79654	493.38379	-2411.08716	467.33154	393.04758	-2383.54614	368.61584	503.31256	-2390.26538	325.64276	506.18079	-2442.86523	370.72345	492.55338	-2441.10547	326.15048	498.22113	-2446.82446	111.57155	504.75113	-2447.18066	113.43762	414.95071	0.00000	0.00000	0.00000	-2580.17261	59.58036	533.99133	-2628.40845	85.50936	472.82581	-2589.66064	74.66206	424.70364	-2191.91650	1000.79211	269.26849	0.00000	0.00000	0.00000	-2258.25391	598.90381	96.18161	-2262.22559	557.13574	101.57941	-2316.55005	599.34827	115.89484	0.00000	0.00000	0.00000	-2221.74951	522.27771	108.27245	-2248.46021	487.56778	244.81560	-2061.41699	311.79395	114.62650	0.00000	0.00000	0.00000	-2110.95581	272.76892	114.56776	-2078.71631	239.00381	119.30744	-1983.46680	170.30074	140.59216	-2043.58276	164.28192	223.43155	-1914.55933	133.86502	218.91689	-2100.87769	54.61902	199.82529	-2124.66309	56.79063	146.95695	-2059.22290	50.93885	91.20197
1474	5.89200	0.00000	0.00000	0.00000	-2384.08862	948.25824	456.18323	0.00000	0.00000	0.00000	-2308.73145	623.19202	497.95209	-2341.32373	681.87567	517.93237	-2355.71851	641.48956	512.57861	-2404.80029	469.89960	493.99039	-2413.78613	467.51724	393.71686	-2385.44385	368.74890	503.76276	-2391.94287	325.80466	506.55078	-2444.93359	369.99130	493.05270	-2442.92383	326.02267	498.68518	-2446.27783	110.58588	504.56989	-2447.63501	113.29742	415.15814	0.00000	0.00000	0.00000	-2580.12354	58.30996	534.20654	-2628.78662	84.50090	473.00378	-2589.94214	73.87492	424.81024	-2195.99561	1001.18567	269.89691	0.00000	0.00000	0.00000	-2264.13403	598.93475	95.93209	-2269.25342	557.32703	100.87843	-2322.42285	599.34283	114.99571	0.00000	0.00000	0.00000	-2228.13062	522.10297	108.19192	-2256.11450	487.01956	243.89023	-2066.05884	312.07471	115.28310	-2042.82642	273.13806	123.28893	-2115.60522	274.29807	113.97633	-2083.17285	241.01332	118.67090	-1987.20325	173.33728	140.47514	-2047.73376	166.55737	222.81792	-1917.84302	138.64944	219.14055	-2101.56909	54.90829	199.71126	-2124.66992	56.67024	147.23610	-2059.95215	51.67397	91.40788
1475	5.89600	0.00000	0.00000	0.00000	-2388.03784	948.45282	457.30301	0.00000	0.00000	0.00000	-2311.74292	623.53937	498.63382	-2344.60254	682.16864	518.71863	-2358.50024	642.49438	514.64703	-2407.26953	469.92316	494.57889	-2416.36084	467.66940	394.30505	-2387.36914	368.97562	504.24008	-2393.61865	325.91190	506.94806	-2446.78369	369.74579	493.48810	-2444.85400	326.36487	499.00040	-2447.59961	111.16985	504.96613	-2448.09326	113.23035	415.35721	-2373.63623	57.61494	450.44000	-2580.63647	57.95575	534.20221	-2629.10303	83.55187	473.10541	-2590.25439	73.26973	424.86844	-2200.01709	1001.66504	270.51895	0.00000	0.00000	0.00000	-2271.93115	599.30310	95.33840	-2277.28296	557.70648	99.98428	-2330.51562	600.23773	114.26675	0.00000	0.00000	0.00000	-2236.38696	522.50897	107.58479	-2264.04761	486.51041	242.92062	-2072.26611	316.16409	113.91467	0.00000	0.00000	0.00000	-2120.64746	275.97647	113.24234	-2087.83887	243.01947	118.13242	-1991.14429	176.60184	140.24765	-2052.15771	168.82805	222.25696	-1921.55579	143.98940	219.24980	-2102.57812	55.31596	199.68674	-2125.60132	56.86818	146.94875	-2060.82593	52.65036	91.57274
1476	5.90000	0.00000	0.00000	0.00000	-2391.99170	948.68176	458.55353	0.00000	0.00000	0.00000	-2314.77100	623.97778	499.37405	-2347.71265	682.39453	519.51599	-2361.61279	642.71698	515.38751	-2409.75928	470.00574	495.18356	-2418.81812	467.86014	394.90915	-2389.12622	369.08255	504.61545	-2395.21558	326.04193	507.31381	-2448.62817	369.59180	494.02762	-2446.43848	326.13751	499.45224	-2448.09766	111.00667	505.01508	-2448.48047	113.11243	415.46625	0.00000	0.00000	0.00000	-2580.85352	57.21884	534.21234	-2629.41528	82.61710	473.20798	-2590.53052	72.54984	424.89746	-2204.05225	1002.19019	271.19971	0.00000	0.00000	0.00000	-2278.31885	599.29254	95.03461	-2284.03101	557.67670	99.26763	-2337.69653	600.71393	113.43929	0.00000	0.00000	0.00000	-2243.17041	522.42163	107.38805	-2272.15405	485.82056	241.94695	-2078.04980	318.45563	113.55630	-2052.30591	277.39035	124.29179	-2126.09155	277.69446	112.59943	-2092.86914	245.16902	117.58320	-1995.51196	179.86237	140.18808	-2056.74585	171.06720	221.76741	-1925.64404	149.65677	220.19646	-2103.26099	55.59278	199.58290	-2126.34448	56.99776	146.92278	-2061.63013	53.79508	91.73543
1477	5.90400	0.00000	0.00000	0.00000	-2395.94629	948.92975	459.65283	-2296.46509	663.61462	511.12161	-2318.89844	624.17145	500.17828	-2350.80396	682.61841	520.29059	-2364.56372	642.89227	516.14722	-2412.00269	470.02435	495.77356	-2421.30933	467.97940	395.49734	-2390.90259	369.21878	505.02081	-2396.74048	326.12985	507.67349	-2450.27026	369.95929	494.51498	-2448.07080	325.97046	499.92682	-2448.48804	110.81498	505.13672	-2448.92163	113.00954	415.61505	0.00000	0.00000	0.00000	-2581.04639	56.49526	534.27972	-2629.77051	81.75182	473.30154	-2590.84644	71.87082	425.00613	-2208.10791	1002.58514	271.97501	-2386.51636	960.93146	161.04547	-2285.49170	599.47339	94.48052	-2291.44653	557.94250	98.29678	-2343.95630	600.75391	112.42948	-2339.75952	553.00757	116.73511	-2251.02441	522.41541	106.90707	-2279.09497	484.41324	240.46204	-2084.17603	320.73599	113.22875	-2057.98022	279.79871	124.30424	-2131.69556	279.38901	111.88747	-2098.14160	247.27969	117.02244	-2000.11926	183.16847	140.07549	-2061.54419	173.37773	221.34178	-1930.01404	155.18927	220.55917	-2104.50952	55.98379	199.67697	-2127.20361	57.17179	146.86264	-2062.78540	55.22964	91.93943
1478	5.90800	0.00000	0.00000	0.00000	-2399.86670	949.13593	460.88031	0.00000	0.00000	0.00000	-2321.82300	624.47748	500.75995	-2353.89722	682.82654	521.00830	-2366.62231	641.54633	517.85638	-2414.26880	469.99536	496.40878	-2423.72510	468.14627	395.97925	-2392.67578	369.34933	505.41348	-2398.34912	326.18945	508.05658	-2452.14551	369.31613	494.94235	-2449.30176	325.38336	500.41818	-2448.86890	110.63335	505.24744	-2449.37500	112.96056	415.79434	0.00000	0.00000	0.00000	-2581.20386	55.61895	534.39252	-2630.07666	80.94952	473.43979	-2591.18457	71.28703	425.11356	-2212.11279	1003.08368	272.75885	-2389.92480	960.54102	162.00159	-2293.75537	599.85913	93.72241	-2301.02148	557.84998	98.18325	-2351.57520	601.39728	111.64044	-2347.09058	553.36426	115.66219	-2259.02026	522.53040	106.47408	-2289.27271	484.56201	239.64078	-2090.55615	322.99603	112.88015	-2063.77417	282.15771	124.13425	-2137.44995	281.14453	111.37025	-2103.52100	249.42007	116.50735	-2005.03381	186.57118	140.05020	-2066.64087	175.83704	220.97954	-1934.60583	161.07361	220.88454	-2105.94336	56.66884	199.80696	-2128.37451	57.34959	146.88940	-2063.90747	56.96052	92.09186
1479	5.91200	0.00000	0.00000	0.00000	-2403.76318	949.30255	461.95969	-2302.27856	664.19470	512.40015	-2324.64404	624.84540	501.42926	-2356.88965	683.01410	521.75897	-2369.40552	641.69446	518.55731	-2416.41992	469.92456	496.87296	-2425.98145	468.27579	396.61508	-2394.38013	369.52338	505.78268	-2399.76562	326.31479	508.35818	-2453.69214	369.58206	495.45056	-2450.95288	325.56042	500.72318	-2449.19336	110.46072	505.34866	-2449.80737	112.87914	415.97754	0.00000	0.00000	0.00000	-2581.40015	54.86560	534.53015	-2630.32959	80.01908	473.64835	-2591.50000	70.74689	425.26053	-2215.10938	1004.04761	273.34747	-2393.54321	960.78821	163.00105	-2301.13159	599.98358	93.05240	-2308.99463	558.03528	97.33479	-2359.33496	602.33112	110.65266	-2355.06860	553.80566	114.57780	-2267.25659	522.65289	105.69990	-2298.19360	483.81339	238.36597	-2096.98438	325.37961	112.50627	-2071.05933	286.00137	121.81208	-2143.51245	282.87436	110.88242	-2109.30835	251.62369	116.16795	-2010.17969	190.07643	139.92131	-2071.68726	178.22314	220.62218	-1939.41333	166.60272	220.94043	-2107.60254	57.44900	199.94154	-2129.69727	57.67029	146.82817	-2065.40137	58.99120	92.23298
1480	5.91600	0.00000	0.00000	0.00000	-2407.69604	949.50513	463.11984	-2305.19824	664.45392	513.04224	-2326.91431	624.90881	501.78473	-2359.92114	683.26624	522.47162	-2372.29785	641.86017	519.22894	-2418.46460	469.89264	497.42587	-2428.27466	468.36237	397.17261	-2396.05225	369.64417	506.16080	-2401.17896	326.31766	508.72217	-2455.43286	369.43976	495.92545	-2452.34790	325.38058	501.09991	-2449.41821	110.30680	505.40897	-2450.17041	112.78184	416.18484	0.00000	0.00000	0.00000	-2581.57104	54.21377	534.65747	-2630.59985	79.28925	473.83057	-2591.70728	70.09148	425.39618	-2219.74292	1004.12048	274.52695	-2397.04614	960.87891	163.89159	-2311.32349	600.92651	92.68972	-2319.86450	558.48212	96.87502	-2367.01855	602.93292	109.88632	-2363.15356	554.33667	113.65538	-2275.63281	522.57416	105.02432	-2305.81104	482.38968	236.73491	-2103.69263	327.61868	112.14379	0.00000	0.00000	0.00000	-2149.81616	284.63541	110.58832	-2115.23486	253.79364	115.86078	-2015.50769	193.63321	139.81146	-2076.89966	180.72206	220.40710	-1944.48694	172.95847	221.20615	-2109.42407	58.28043	199.99983	-2131.28174	58.03833	146.74974	-2067.03564	61.33525	92.37579
